<?xml version="1.0" encoding="UTF-8" standalone="no"?>
<svg width="512" height="512" viewBox="0 0 512 512" fill="none" xmlns="http://www.w3.org/2000/svg">
  <!-- Background gradient -->
  <rect width="512" height="512" rx="100" fill="url(#paint0_linear)"/>
  
  <!-- Left code bracket -->
  <path d="M150 180L100 256L150 332" stroke="white" stroke-width="24" stroke-linecap="round" stroke-linejoin="round"/>
  
  <!-- Right code bracket -->
  <path d="M362 180L412 256L362 332" stroke="white" stroke-width="24" stroke-linecap="round" stroke-linejoin="round"/>
  
  <!-- People silhouettes -->
  <circle cx="190" cy="256" r="40" fill="#E879F9"/>
  <circle cx="322" cy="256" r="40" fill="#38BDF8"/>
  
  <!-- Connection line -->
  <path d="M230 256H282" stroke="white" stroke-width="12" stroke-linecap="round" stroke-dasharray="12 8"/>
  
  <!-- Heart -->
  <path d="M256 290C256 290 242 270 228 270C214 270 204 284 204 296C204 320 256 350 256 350C256 350 308 320 308 296C308 284 298 270 284 270C270 270 256 290 256 290Z" fill="#F43F5E" fill-opacity="0.8"/>
  
  <!-- Gradient definition -->
  <defs>
    <linearGradient id="paint0_linear" x1="0" y1="0" x2="512" y2="512" gradientUnits="userSpaceOnUse">
      <stop stop-color="#4F46E5"/>
      <stop offset="1" stop-color="#7C3AED"/>
    </linearGradient>
  </defs>
</svg>
